<?xml version="1.0" encoding="utf-8"?>
<!-- Generator: Adobe Illustrator 22.0.1, SVG Export Plug-In . SVG Version: 6.00 Build 0)  -->
<svg version="1.1" id="Layer_1" xmlns="http://www.w3.org/2000/svg" xmlns:xlink="http://www.w3.org/1999/xlink" x="0px" y="0px"
	 viewBox="0 0 32.5 32.5" style="enable-background:new 0 0 32.5 32.5;" xml:space="preserve">
<style type="text/css">
	.st0{fill:#46A8D4;}
	.st1{fill:none;}
</style>
<g>
	<path class="st0" d="M17.1,14.3l-1.7-5.6L14.3,9l1.6,5.2l-0.3,0.3l-1.8-4.3l-1,0.4l2.1,5c0.1,0.2,0.2,0.3,0.4,0.3c0,0,0.1,0,0.1,0
		c0.1,0,0.3,0,0.4-0.1l1.2-1C17,14.7,17.1,14.5,17.1,14.3"/>
	<g>
		<path class="st0" d="M13.1,7.7l0.3-1.1L7.9,5C7.7,4.9,7.5,5,7.3,5.1L6.2,6.2C6.1,6.4,6,6.6,6.1,6.7c0,0.2,0.2,0.3,0.3,0.4l5,2.2
			l0.4-1L7.6,6.5l0.3-0.3L13.1,7.7z"/>
		<g>
			<path class="st0" d="M31.8,11.4C29.1,2.8,20-1.9,11.4,0.7C2.8,3.4-1.9,12.6,0.7,21.1l1.1-0.3c-2.5-8,2-16.5,9.9-19
				c3.9-1.2,8-0.8,11.6,1c3.6,1.9,6.2,5,7.4,8.9c1.2,3.9,0.8,8-1,11.5c-1.9,3.6-5,6.2-8.9,7.4c-6.5,2-13.6-0.5-17.2-6.2l-0.9,0.6
				c3,4.7,8.3,7.4,13.7,7.4c1.6,0,3.2-0.2,4.8-0.7c4.1-1.3,7.5-4.1,9.5-8C32.7,19.9,33.1,15.5,31.8,11.4"/>
			<path class="st0" d="M18.2,4.4c0-0.3-0.2-0.6-0.6-0.6h0c-1.2,0-2.4,0.5-3.2,1.3L9.7,9.9L7.8,9.4c-0.2,0-0.4,0-0.5,0.1l-1.1,1.1
				c-0.1,0.1-0.2,0.3-0.2,0.5c0,0.2,0.1,0.3,0.3,0.4L9,13.1l1.6,2.6c0.1,0.1,0.2,0.2,0.4,0.3c0,0,0,0,0.1,0c0.1,0,0.3-0.1,0.4-0.2
				l1.1-1.1c0.1-0.1,0.2-0.3,0.1-0.5l-0.5-1.9l4.7-4.7C17.7,6.8,18.2,5.6,18.2,4.4 M11.2,11.7C11,11.9,11,12.1,11,12.3l0.5,1.9
				l-0.4,0.4l-1.3-2.1c0-0.1-0.1-0.1-0.2-0.2l-2.1-1.3l0.4-0.4L9.8,11c0.2,0,0.4,0,0.5-0.1L15.2,6c0.5-0.5,1.1-0.8,1.8-1
				c-0.1,0.7-0.4,1.3-0.9,1.8L11.2,11.7z"/>
			<path class="st0" d="M29.1,19c-0.1-0.2-0.3-0.3-0.5-0.3h-1.9l-1.5-3c-0.1-0.2-0.3-0.3-0.5-0.3h-5.5c-0.3,0-0.6,0.2-0.6,0.6v4.4
				c0,0.3,0.2,0.6,0.6,0.6h1.7V27c0,0.3,0.2,0.5,0.6,0.5h2.8c0.1,0,0.3-0.1,0.4-0.2l2.2-2.2c0.1-0.1,0.2-0.2,0.2-0.4v-2l2.1-3.2
				C29.2,19.4,29.2,19.2,29.1,19 M26,22.3c-0.1,0.1-0.1,0.2-0.1,0.3v2L24,26.4h-2h0v-6.1c0-0.3-0.2-0.5-0.6-0.5h-1.7v-3.3h4.6l1.5,3
				c0.1,0.2,0.3,0.3,0.5,0.3h1.2L26,22.3z"/>
			<path class="st1" d="M29.5,14.3l-2-3.6c-0.1-0.2-0.3-0.3-0.5-0.3h-3.3c-0.2,0-0.4,0.1-0.5,0.2l-0.9,1.4h-1.4V9.4h2.8
				c0.1,0,0.3-0.1,0.4-0.2l2-2h2.5V6.1h-2.8c-0.1,0-0.3,0.1-0.4,0.2l-2,2h-3.1c-0.3,0-0.6,0.2-0.6,0.5v3.9c0,0.3,0.2,0.6,0.6,0.6
				h2.2c0.2,0,0.4-0.1,0.5-0.2l0.9-1.4h2.7l2,3.6c0.1,0.2,0.3,0.3,0.5,0.3h2.2v-1.1H29.5z"/>
			<path class="st0" d="M16,18.8h-3.1l-1.5-1.5c-0.1-0.1-0.2-0.2-0.4-0.2H8.3c-0.3,0-0.6,0.2-0.6,0.6v3.9c0,0.3,0.2,0.6,0.6,0.6h2.2
				v5.5c0,0.2,0.1,0.4,0.3,0.5c0.1,0,0.2,0.1,0.2,0.1c0.1,0,0.2,0,0.3-0.1l2.2-1.7c0.1-0.1,0.2-0.3,0.2-0.4v-1.4l2.5-2
				c0.1-0.1,0.2-0.3,0.2-0.4v-2.8C16.5,19.1,16.3,18.8,16,18.8 M15.4,21.9l-2.5,2c-0.1,0.1-0.2,0.3-0.2,0.4v1.4l-1.1,0.8v-5
				c0-0.3-0.2-0.6-0.6-0.6H8.8v-2.8h2l1.5,1.5c0.1,0.1,0.2,0.2,0.4,0.2h2.8V21.9z"/>
			<path class="st0" d="M4.9,11.9L3.2,9.1C3.1,8.9,3,8.8,2.8,8.8H2.2v1.1h0.2L3.7,12l-1.3,1.3c-0.1,0.1-0.2,0.2-0.2,0.4v1.7H0.6v1.1
				h2.2c0.3,0,0.6-0.2,0.6-0.6v-2l1.5-1.5C5,12.3,5,12.1,4.9,11.9"/>
		</g>
	</g>
</g>
</svg>
