<?xml version="1.0" encoding="utf-8"?>
<!-- Generator: Adobe Illustrator 22.0.1, SVG Export Plug-In . SVG Version: 6.00 Build 0)  -->
<svg version="1.1" id="Layer_1" xmlns="http://www.w3.org/2000/svg" xmlns:xlink="http://www.w3.org/1999/xlink" x="0px" y="0px"
	 viewBox="0 0 26.3 26.3" style="enable-background:new 0 0 26.3 26.3;" xml:space="preserve">
<style type="text/css">
	.st0{fill:#46A8D4;}
</style>
<g>
	<path class="st0" d="M13.2,15.8c1.5,0,2.6-1.2,2.6-2.6c0-0.6-0.2-1.1-0.5-1.5c-0.5-0.7-1.3-1.1-2.1-1.1c-0.9,0-1.7,0.4-2.1,1.1
		c-0.3,0.4-0.5,1-0.5,1.5C10.5,14.6,11.7,15.8,13.2,15.8"/>
	<path class="st0" d="M13.2,0C5.9,0,0,5.9,0,13.2c0,7.3,5.9,13.2,13.2,13.2c7.3,0,13.2-5.9,13.2-13.2C26.3,5.9,20.4,0,13.2,0
		 M20.7,11.6v6.1c0,1.6-1.3,2.9-2.9,2.9H8.6c-1.6,0-2.9-1.3-2.9-2.9v-6.1V8.6C5.7,7,7,5.7,8.6,5.7h9.2c1.6,0,2.9,1.3,2.9,2.9V11.6z"
		/>
	<path class="st0" d="M17.3,13.2c0,2.3-1.8,4.1-4.1,4.1c-2.3,0-4.1-1.8-4.1-4.1c0-0.5,0.1-1.1,0.3-1.5H7.1v6.1
		c0,0.8,0.6,1.4,1.4,1.4h9.2c0.8,0,1.4-0.6,1.4-1.4v-6.1H17C17.2,12.1,17.3,12.6,17.3,13.2"/>
</g>
</svg>
